<svg width="34" height="35" viewBox="0 0 34 35" fill="none" xmlns="http://www.w3.org/2000/svg">
<path d="M9.81048 0.230835H16.9231H24.0357C25.7525 0.230835 27.2241 0.476097 28.2051 0.966621L28.2051 0.966632C29.1862 1.45715 30.1672 1.94768 31.1483 2.92872C32.1293 3.6645 32.6198 4.64555 33.1104 5.87186C33.3556 6.85291 33.8462 8.32448 33.8462 10.0413V17.1539V24.2665C33.8462 25.9833 33.6009 27.4549 33.1104 28.436C32.6198 29.417 31.8841 30.3981 31.1483 31.3791C30.4125 32.3602 29.4314 32.8507 28.2051 33.3412C27.2241 33.5865 25.7525 34.077 24.0357 34.077H16.9231H9.81048C8.09364 34.077 6.62208 33.8317 5.64103 33.3412C4.65998 32.8507 3.67893 32.1149 2.69789 31.3791C1.71684 30.6433 1.22632 29.6623 0.735793 28.436C0.490531 27.4549 0 25.9833 0 24.2665V17.1539V10.0413C0 8.32448 0.245269 6.85291 0.735793 5.87186L0.735798 5.87185C1.22632 4.89081 1.71684 3.90976 2.69789 2.92872C3.43367 1.94767 4.41472 1.45715 5.64103 0.966621C6.62208 0.721359 8.09364 0.230835 9.81048 0.230835Z" fill="url(#paint0_linear_183_473)"/>
<path fill-rule="evenodd" clip-rule="evenodd" d="M26.2424 10.2865C27.2234 10.2865 28.2045 9.55071 28.2045 8.3244C28.2045 7.09809 27.2234 6.3623 26.2424 6.3623C25.2613 6.3623 24.2803 7.09809 24.2803 8.3244C24.2803 9.30545 25.2613 10.2865 26.2424 10.2865ZM11.2821 17.3988C11.2821 20.5872 13.7348 23.0399 16.9232 23.0399C20.1116 23.0399 22.5642 20.5872 22.5642 17.3988C22.5642 14.2104 20.1116 11.7578 16.9232 11.7578C13.7348 11.7578 11.2821 14.2104 11.2821 17.3988ZM8.09375 17.3988C8.09375 12.4936 12.0179 8.5694 16.9232 8.5694C21.8284 8.5694 25.7526 12.4936 25.7526 17.3988C25.7526 22.3041 21.8284 26.2283 16.9232 26.2283C12.0179 26.2283 8.09375 22.3041 8.09375 17.3988Z" fill="white"/>
<defs>
<linearGradient id="paint0_linear_183_473" x1="5.2265" y1="28.5353" x2="56.124" y2="-11.8567" gradientUnits="userSpaceOnUse">
<stop stop-color="#61CE70"/>
<stop offset="1" stop-color="#F2A942"/>
</linearGradient>
</defs>
</svg>
