<svg width="37" height="26" viewBox="0 0 37 26" fill="none" xmlns="http://www.w3.org/2000/svg">
<path d="M36.2294 4.12181C35.803 2.52887 34.5512 1.27706 32.9583 0.850652C30.0709 0.0770264 18.5 0.0770264 18.5 0.0770264C18.5 0.0770264 6.92912 0.0770264 4.04478 0.850652C2.45184 1.27706 1.20003 2.52887 0.773625 4.12181C0 7.00615 0 13.0276 0 13.0276C0 13.0276 0 19.0491 0.773625 21.9335C1.20003 23.5264 2.45184 24.7782 4.04478 25.2046C6.92912 25.9782 18.5 25.9782 18.5 25.9782C18.5 25.9782 30.0709 25.9782 32.9552 25.2046C34.5482 24.7782 35.8 23.5264 36.2264 21.9335C37 19.0491 37 13.0276 37 13.0276C37 13.0276 37 7.00615 36.2294 4.12181Z" fill="url(#paint0_linear_183_481)"/>
<path d="M14.7998 18.577L24.4153 13.0276L14.7998 7.47825V18.577Z" fill="white"/>
<defs>
<linearGradient id="paint0_linear_183_481" x1="5.71352" y1="21.7374" x2="45.3963" y2="-23.2492" gradientUnits="userSpaceOnUse">
<stop stop-color="#61CE70"/>
<stop offset="1" stop-color="#F2A942"/>
</linearGradient>
</defs>
</svg>
