<svg width="38" height="38" viewBox="0 0 38 38" fill="none" xmlns="http://www.w3.org/2000/svg">
<path d="M37.2308 18.6154C37.2308 8.33438 28.8964 0 18.6154 0C8.33438 0 0 8.33438 0 18.6154C0 27.9067 6.80734 35.6081 15.7067 37.0046V23.9964H10.9802V18.6154H15.7067V14.5142C15.7067 9.8487 18.486 7.27163 22.738 7.27163C24.7748 7.27163 26.905 7.63522 26.905 7.63522V12.2163H24.5578C22.2454 12.2163 21.524 13.6514 21.524 15.1235V18.6154H26.6869L25.8616 23.9964H21.524V37.0046C30.4234 35.6081 37.2308 27.9067 37.2308 18.6154Z" fill="url(#paint0_linear_183_469)"/>
<path d="M25.8624 23.9965L26.6877 18.6154H21.5248V15.1236C21.5248 13.6515 22.2462 12.2164 24.5586 12.2164H26.9058V7.63528C26.9058 7.63528 24.7756 7.2717 22.7388 7.2717C18.4867 7.2717 15.7075 9.84877 15.7075 14.5142V18.6154H10.981V23.9965H15.7075V37.0047C16.6554 37.1534 17.6265 37.2308 18.6162 37.2308C19.6058 37.2308 20.577 37.1534 21.5248 37.0047V23.9965H25.8624Z" fill="white"/>
<defs>
<linearGradient id="paint0_linear_183_469" x1="5.74915" y1="30.9458" x2="61.4724" y2="-13.5462" gradientUnits="userSpaceOnUse">
<stop stop-color="#61CE70"/>
<stop offset="1" stop-color="#F2A942"/>
</linearGradient>
</defs>
</svg>
