<svg width="125" height="125" viewBox="0 0 125 125" fill="none" xmlns="http://www.w3.org/2000/svg">
<path d="M57.5 2.88675C60.594 1.10042 64.406 1.10042 67.5 2.88675L111.627 28.3632C114.721 30.1496 116.627 33.4508 116.627 37.0235V87.9765C116.627 91.5491 114.721 94.8504 111.627 96.6367L67.5 122.113C64.406 123.9 60.594 123.9 57.5 122.113L13.3734 96.6367C10.2794 94.8504 8.37341 91.5492 8.37341 87.9765V37.0235C8.37341 33.4508 10.2794 30.1496 13.3734 28.3632L57.5 2.88675Z" fill="url(#paint0_linear_175_3523)"/>
<path d="M44.5127 121.925C44.5127 121.925 55.9959 126.248 68.6514 123.955C81.5639 122.138 93.416 115.808 102.107 106.087C110.797 96.3659 115.764 83.8812 116.128 70.8468C116.156 69.7961 116.153 68.7579 116.122 67.7184C116.343 67.4944 116.566 67.2605 116.783 67.0249C116.572 67.2027 116.355 67.3787 116.115 67.5697C115.55 68.0246 114.911 68.4936 114.186 68.9913C113.955 69.1562 113.708 69.3241 113.453 69.4967C111.236 70.9476 108.924 72.2475 106.533 73.3875C106.113 73.5867 105.679 73.7889 105.225 73.9962C104.45 74.353 103.647 74.7094 102.806 75.0653C102.423 75.2225 102.03 75.3874 101.627 75.5532C101.592 75.5673 101.556 75.5793 101.519 75.5891C101.035 75.7909 100.549 75.9784 100.047 76.1721C98.5502 76.7477 96.9521 77.3181 95.2526 77.8832L95.2278 77.8974C91.1249 79.2487 86.3847 80.5807 80.9048 81.8118C78.7255 82.303 76.4464 82.7763 74.0436 83.2325C73.2808 83.373 72.4956 83.5177 71.704 83.6608C68.6989 84.1077 65.8245 85.1938 63.2747 86.8458C62.5146 87.3486 61.7849 87.8958 61.0891 88.4845C60.537 88.9535 60.0122 89.4513 59.5132 89.9674C59.2927 90.1914 59.0777 90.4205 58.8661 90.6505L58.8652 90.6535C58.7072 90.8292 58.5624 91.0082 58.4099 91.1885C57.9734 91.6943 57.5537 92.2148 57.1635 92.7544C54.6305 96.3416 52.7789 100.364 51.7011 104.621C50.5044 109.125 50.2337 113.083 50.4483 114.957L50.4904 114.944C50.6544 114.907 51.3538 114.731 52.4889 114.399C52.6225 114.359 52.7643 114.316 52.912 114.274C53.2628 114.17 53.6448 114.055 54.0646 113.929C54.6806 113.74 55.356 113.525 56.097 113.277C56.3202 113.204 56.5476 113.129 56.7793 113.051L56.7857 113.053L56.7875 113.047C57.615 112.778 58.5152 112.459 59.4722 112.115C68.5906 108.838 82.9899 102.493 94.7352 92.0533C93.99 93.0093 82.8567 106.955 57.4201 117.382C56.4551 117.78 55.4566 118.173 54.4467 118.558C53.4577 118.941 52.452 119.311 51.4206 119.672C50.9328 119.852 50.4522 120.02 49.9477 120.185C48.1946 120.789 46.3797 121.363 44.5127 121.925Z" fill="white"/>
<path d="M46.477 95.7068C46.477 95.7068 39.3618 94.3888 33.672 89.3728C27.707 84.5196 23.6532 77.7109 22.2293 70.154C20.8055 62.597 22.1035 54.78 25.8933 48.0888C26.1992 47.5496 26.5173 47.0267 26.8501 46.5114C26.8069 46.3307 26.7653 46.1447 26.7276 45.9597C26.7799 46.1139 26.8361 46.2689 26.8986 46.4381C27.0455 46.8403 27.2254 47.272 27.4391 47.7436C27.5059 47.8978 27.5792 48.0576 27.6553 48.2225C28.3322 49.6308 29.1031 50.9919 29.9628 52.2966C30.114 52.5249 30.2721 52.7601 30.4373 53.0021C30.7199 53.4188 31.0168 53.8437 31.3329 54.2798C31.4785 54.476 31.6263 54.679 31.7792 54.8854L31.8229 54.9364C32.0054 55.1857 32.1939 55.4285 32.3883 55.6791C32.9687 56.4261 33.6016 57.2013 34.2871 58.0048L34.2956 58.0194C35.9545 59.9524 37.9415 62.0701 40.3328 64.362C41.2832 65.2743 42.2893 66.2081 43.364 67.1709C43.7062 67.4742 44.0583 67.7868 44.4142 68.1003C45.7951 69.2419 46.9151 70.6664 47.6986 72.2777C47.9291 72.7633 48.1308 73.262 48.3026 73.7713C48.4383 74.1764 48.5518 74.5876 48.646 75.0002C48.6893 75.1805 48.7279 75.3617 48.7646 75.5424L48.7642 75.5445C48.7903 75.6812 48.8088 75.8156 48.8306 75.9531C48.897 76.3416 48.9501 76.7323 48.9826 77.1233C49.1678 79.7065 48.8764 82.3017 48.1231 84.7795C47.5927 86.7703 46.7421 88.6617 45.6045 90.3794L45.5874 90.3605C45.5158 90.2915 45.216 89.9892 44.7445 89.4756C44.6892 89.4152 44.6309 89.3497 44.5688 89.2837C44.4237 89.1244 44.266 88.9496 44.0921 88.7581C43.839 88.4746 43.5632 88.1606 43.2651 87.8094C43.1743 87.7045 43.0823 87.5972 42.9892 87.4873L42.9854 87.4865L42.9867 87.4826C42.6509 87.0946 42.2936 86.6594 41.9154 86.1938C38.3107 81.7599 32.9755 74.1671 30.2287 65.3162C30.3136 66.026 31.6829 76.4603 41.3453 89.4786C41.7116 89.9737 42.0958 90.4762 42.4885 90.9782C42.8706 91.4737 43.2659 91.9667 43.6762 92.4636C43.8677 92.703 44.0591 92.9343 44.2634 93.1711C44.9646 94.0111 45.7056 94.8536 46.477 95.7068Z" fill="white"/>
<path d="M50.1688 64.1466C47.2623 62.938 44.6924 61.0423 42.6796 58.6221C39.4078 54.8284 37.5851 49.9986 37.5348 44.9891C37.4844 39.9797 39.2097 35.1142 42.4047 31.2556C42.6625 30.945 42.9263 30.6456 43.1984 30.3531C43.1915 30.2323 43.1863 30.1085 43.1834 29.9856C43.1992 30.0901 43.2172 30.1963 43.2382 30.312C43.2865 30.5865 43.3525 30.8838 43.4356 31.211C43.4609 31.3172 43.4896 31.4282 43.5196 31.5425C43.7928 32.5231 44.1317 33.4842 44.5343 34.4191C44.6054 34.5827 44.6795 34.7511 44.7583 34.9258C44.8919 35.2252 45.0336 35.5315 45.1866 35.8476C45.2577 35.9897 45.3292 36.1371 45.4037 36.287L45.4261 36.3247C45.5147 36.5055 45.6076 36.6828 45.7036 36.8657C45.9905 37.4109 46.3081 37.9803 46.6562 38.5738L46.6596 38.5841C47.5029 40.0134 48.5356 41.5986 49.8077 43.3419C50.3131 44.0353 50.8516 44.7489 51.4306 45.489C51.6157 45.7229 51.8059 45.9636 51.9986 46.2052C52.7536 47.0952 53.3092 48.1367 53.6279 49.2595C53.7203 49.5973 53.7926 49.9403 53.8446 50.2866C53.8853 50.562 53.9111 50.8388 53.9248 51.1141C53.9316 51.2345 53.9359 51.3553 53.9389 51.4752L53.938 51.4765C53.9393 51.5669 53.9359 51.6555 53.9342 51.7463C53.9325 52.0029 53.9217 52.2595 53.8982 52.5143C53.7218 54.1922 53.2385 55.8234 52.4723 57.3265C51.905 58.5428 51.1435 59.6588 50.2177 60.6306L50.2087 60.616C50.171 60.5637 50.0133 60.3359 49.7692 59.9525C49.7405 59.9075 49.711 59.8587 49.6789 59.809C49.6035 59.6903 49.5225 59.5606 49.433 59.418C49.3028 59.2072 49.1618 58.9742 49.0106 58.7151C48.9644 58.6376 48.9177 58.5579 48.8706 58.4769L48.8685 58.4757L48.8692 58.4735C48.6984 58.1861 48.5189 57.8661 48.3296 57.5244C46.5239 54.2691 43.9693 48.7901 43.218 42.7996C43.1915 43.2647 42.8784 50.1132 47.5891 59.5666C47.7673 59.9255 47.9561 60.2917 48.1506 60.6588C48.3394 61.0198 48.5365 61.3809 48.743 61.7468C48.8384 61.9223 48.9348 62.0924 49.0389 62.268C49.3922 62.8865 49.7718 63.5114 50.1688 64.1466Z" fill="white"/>
<path d="M51.5869 78.6208C51.5869 78.6208 59.3652 82.0761 68.2211 80.9963C77.2357 80.2573 85.6975 76.35 92.1059 69.9672C98.5144 63.5844 102.456 55.1384 103.231 46.1268C103.292 45.4004 103.332 44.6813 103.352 43.9604C103.514 43.8139 103.678 43.661 103.838 43.5068C103.684 43.6212 103.527 43.7342 103.354 43.8572C102.944 44.1492 102.482 44.4487 101.961 44.764C101.794 44.8689 101.616 44.9751 101.433 45.0843C99.8393 46.0001 98.186 46.8074 96.4842 47.5009C96.1852 47.6221 95.8764 47.7446 95.5544 47.8697C95.0031 48.086 94.4325 48.3006 93.8359 48.513C93.564 48.6064 93.2855 48.7049 92.9998 48.8034L92.9236 48.824C92.5809 48.9443 92.2365 49.0548 91.8811 49.1688C90.8214 49.5071 89.6918 49.8379 88.4922 50.1611L88.4742 50.1697C85.5787 50.9408 82.243 51.6727 78.3989 52.3053C76.8698 52.558 75.273 52.7944 73.5906 53.0134C73.0564 53.0802 72.5069 53.1487 71.9531 53.2159C69.8542 53.4047 67.8202 54.0413 65.9883 55.083C65.4418 55.4008 64.9143 55.7503 64.4087 56.1298C64.0077 56.4326 63.624 56.7564 63.2582 57.0935C63.0963 57.24 62.9382 57.3899 62.7823 57.5407L62.7815 57.5428C62.665 57.658 62.5574 57.7762 62.4448 57.8953C62.1223 58.2277 61.8109 58.5712 61.5188 58.9293C59.6206 61.3116 58.1768 64.0227 57.2595 66.9273C56.4495 69.2111 56.0163 71.6115 55.9768 74.0344L56.0063 74.0271C56.122 74.0079 56.6132 73.914 57.4125 73.7299C57.5063 73.708 57.6061 73.6831 57.7106 73.66C57.9578 73.6026 58.2268 73.538 58.5227 73.4677C58.9567 73.3615 59.4329 73.2403 59.9559 73.0981C60.1135 73.0565 60.2741 73.0135 60.4377 72.9691L60.442 72.9705L60.4437 72.9662C61.0271 72.8128 61.6635 72.6286 62.3399 72.4286C68.7861 70.526 79.0122 66.7102 87.5648 59.953C87.0102 60.5847 78.7406 69.7945 60.7071 75.994C60.0231 76.2308 59.316 76.4621 58.6011 76.6883C57.9007 76.9144 57.1898 77.1294 56.4608 77.3384C56.116 77.4438 55.7763 77.5406 55.4204 77.6344C54.1817 77.9826 52.9023 78.3069 51.5869 78.6208Z" fill="white"/>
<path d="M61.6641 47.025C64.2354 47.8103 66.9588 47.9602 69.6008 47.462C73.8186 46.7438 77.6459 44.5552 80.4041 41.2843C83.1622 38.0134 84.673 33.8715 84.6686 29.5929C84.6677 29.2481 84.6571 28.9076 84.6369 28.5671C84.7071 28.4917 84.7783 28.4129 84.8468 28.3333C84.7796 28.3937 84.7097 28.4536 84.633 28.5183C84.4518 28.6729 84.2472 28.8326 84.0142 29.0027C83.9396 29.0592 83.8604 29.1166 83.7786 29.1757C83.0652 29.6725 82.319 30.1207 81.5453 30.5172C81.41 30.5866 81.269 30.6573 81.1225 30.7292C80.8715 30.8539 80.6116 30.9785 80.3391 31.1032C80.2149 31.1585 80.0878 31.2162 79.9571 31.2741L79.922 31.2869C79.7652 31.358 79.6076 31.424 79.4448 31.4921C78.9591 31.6951 78.4403 31.8974 77.8883 32.099L77.8802 32.1037C76.5477 32.586 75.0053 33.0679 73.2197 33.5236C72.5095 33.7052 71.7668 33.8821 70.983 34.0543C70.7341 34.1078 70.478 34.1627 70.2196 34.217C69.2383 34.3922 68.3059 34.7757 67.4853 35.3418C67.2407 35.5138 67.0064 35.7002 66.7838 35.8999C66.6073 36.0593 66.4398 36.2272 66.2813 36.401C66.2111 36.4768 66.1425 36.554 66.0752 36.6315L66.0748 36.6323C66.0248 36.6914 65.9789 36.7519 65.931 36.8122C65.7926 36.9823 65.6598 37.157 65.5369 37.3378C64.7402 38.5382 64.1711 39.875 63.8579 41.2813C63.5698 42.3909 63.4641 43.5399 63.5448 44.6834L63.5585 44.6787C63.612 44.6651 63.8399 44.6008 64.2091 44.4809C64.2524 44.4667 64.2982 44.4513 64.3466 44.4359C64.4605 44.3986 64.5848 44.357 64.7214 44.3117C64.9214 44.244 65.1411 44.1673 65.3818 44.0791C65.4542 44.053 65.528 44.026 65.6032 43.9981L65.6054 43.999L65.6059 43.9968C65.8749 43.9005 66.1669 43.7879 66.4775 43.6658C69.4376 42.5046 74.0998 40.2868 77.8531 36.7514C77.6176 37.0718 74.0985 41.7512 65.8546 45.4129C65.5416 45.5525 65.2182 45.6905 64.8905 45.8262C64.5698 45.9616 64.2434 46.0922 63.9084 46.2207C63.7503 46.2841 63.594 46.344 63.4304 46.4027C62.8612 46.6177 62.2714 46.8229 61.6641 47.025Z" fill="white"/>
<circle cx="63.2504" cy="18.975" r="4.21667" fill="#F2A942"/>
<circle cx="56.9247" cy="33.7333" r="4.21667" fill="#F2A942"/>
<circle cx="57.9789" cy="51.6542" r="3.1625" fill="#F2A942"/>
<circle cx="51.6542" cy="68.5207" r="3.1625" fill="#F2A942"/>
<defs>
<linearGradient id="paint0_linear_175_3523" x1="2.47251" y1="117.704" x2="120.217" y2="10.3209" gradientUnits="userSpaceOnUse">
<stop stop-color="#00A179"/>
<stop offset="1" stop-color="#72FF7C"/>
</linearGradient>
</defs>
</svg>
