<svg width="32" height="32" viewBox="0 0 32 32" fill="none" xmlns="http://www.w3.org/2000/svg">
<circle cx="16" cy="16" r="16" fill="url(#paint0_linear_183_120)"/>
<path d="M15.042 18.3285C14.646 17.8965 14.448 17.3685 14.448 16.7445C14.448 16.2645 14.586 15.8325 14.862 15.4485C15.138 15.0645 15.438 14.7765 15.762 14.5845C16.086 14.3925 16.386 14.1645 16.662 13.9005C16.938 13.6365 17.076 13.3725 17.076 13.1085C17.076 12.8085 16.956 12.5625 16.716 12.3705C16.488 12.1785 16.14 12.0825 15.672 12.0825C14.82 12.0825 14.082 12.4545 13.458 13.1985L12 11.5605C12.996 10.3965 14.31 9.81445 15.942 9.81445C17.094 9.81445 18.006 10.0785 18.678 10.6065C19.35 11.1225 19.686 11.8065 19.686 12.6585C19.686 13.1385 19.584 13.5705 19.38 13.9545C19.176 14.3385 18.924 14.6505 18.624 14.8905C18.336 15.1305 18.042 15.3525 17.742 15.5565C17.442 15.7605 17.19 15.9825 16.986 16.2225C16.782 16.4625 16.68 16.7205 16.68 16.9965C16.68 17.3085 16.788 17.5605 17.004 17.7525L15.042 18.3285ZM16.932 21.7665C16.644 22.0545 16.302 22.1985 15.906 22.1985C15.51 22.1985 15.168 22.0545 14.88 21.7665C14.592 21.4785 14.448 21.1365 14.448 20.7405C14.448 20.3445 14.592 20.0025 14.88 19.7145C15.168 19.4265 15.51 19.2825 15.906 19.2825C16.302 19.2825 16.644 19.4265 16.932 19.7145C17.22 20.0025 17.364 20.3445 17.364 20.7405C17.364 21.1365 17.22 21.4785 16.932 21.7665Z" fill="white"/>
<defs>
<linearGradient id="paint0_linear_183_120" x1="4.94142" y1="26.7606" x2="53.0627" y2="-11.4282" gradientUnits="userSpaceOnUse">
<stop stop-color="#61CE70"/>
<stop offset="1" stop-color="#F2A942"/>
</linearGradient>
</defs>
</svg>
