<svg width="34" height="38" viewBox="0 0 34 38" fill="none" xmlns="http://www.w3.org/2000/svg">
<path d="M33.5099 21.6207C32.46 30.1856 26.2159 30.7382 25.0555 31.0697C24.5582 31.2355 20.027 32.3406 14.2802 32.0091C14.2802 32.0091 10.0254 35.4903 8.64394 36.8718C8.42291 37.0928 8.20187 37.1481 8.0361 37.1481C7.81507 37.0928 7.75981 36.8165 7.75981 36.4297C7.75981 35.8771 7.81507 31.0145 7.81507 31.0145C-0.528837 28.6936 -0.0315223 19.9629 0.0237354 15.3765C0.134251 10.7901 0.963126 7.08788 3.50498 4.54603C8.09137 0.401701 17.5404 1.00954 17.5404 1.00954C25.4975 1.0648 29.3103 3.44087 30.1944 4.26974C33.0678 6.81159 34.5598 12.8347 33.5099 21.6207Z" fill="url(#paint0_linear_183_478)"/>
<path d="M16.0122 6.14887C16.0122 5.85476 16.2506 5.61635 16.5447 5.61635C19.6595 5.61635 22.2816 6.6598 24.3757 8.6957C26.485 10.7465 27.5762 13.5456 27.5762 17.0346C27.5762 17.3287 27.3377 17.5671 27.0436 17.5671C26.7495 17.5671 26.5111 17.3287 26.5111 17.0346C26.5111 13.7822 25.5025 11.2766 23.6333 9.45933C21.7488 7.6272 19.3977 6.68138 16.5447 6.68138C16.2506 6.68138 16.0122 6.44297 16.0122 6.14887Z" fill="white"/>
<path d="M17.6367 8.32557C17.3435 8.30243 17.0871 8.52134 17.0639 8.81453C17.0408 9.10772 17.2597 9.36416 17.5529 9.38731C19.5484 9.54485 21.0692 10.2199 22.1752 11.4263C23.2352 12.5875 23.8003 14.1078 23.7487 15.9142C23.7403 16.2082 23.9718 16.4533 24.2658 16.4617C24.5597 16.4701 24.8049 16.2386 24.8133 15.9446C24.8722 13.8832 24.2218 12.0883 22.9612 10.7077L22.9605 10.7069C21.6352 9.26112 19.8406 8.49956 17.6367 8.32557Z" fill="white"/>
<path d="M18.3418 11.1979C18.0481 11.1821 17.7972 11.4073 17.7813 11.7009C17.7654 11.9946 17.9906 12.2455 18.2843 12.2614C19.2174 12.3119 19.8461 12.5837 20.2571 13.0107C20.6711 13.4409 20.9351 14.1019 20.9862 15.0731C21.0017 15.3668 21.2523 15.5924 21.546 15.5769C21.8397 15.5615 22.0652 15.3108 22.0498 15.0171C21.9904 13.8885 21.6741 12.9471 21.0244 12.2721C20.3717 11.594 19.4533 11.258 18.3418 11.1979Z" fill="white"/>
<path d="M19.584 21.7315C19.1971 22.2288 18.4236 22.1736 18.4236 22.1736C12.953 20.7369 11.5716 15.2663 11.5716 15.2663C11.5716 15.2663 11.5163 14.4927 12.0137 14.1059L13.0083 13.3323C13.4504 12.9455 13.7819 12.0061 13.2846 11.122C13.1611 10.9369 13.0071 10.6981 12.8423 10.4428C12.5646 10.0123 12.2565 9.53485 12.0137 9.188C11.5716 8.58017 10.577 7.36449 10.577 7.36449C10.0796 6.75665 9.36128 6.64613 8.58768 7.03294C7.86933 7.475 7.20623 8.02757 6.5984 8.69067C6.10108 9.24324 5.82479 9.79582 5.76953 10.3484V10.5694C5.76953 10.8457 5.82478 11.0667 5.88003 11.2877C6.10106 12.1718 6.70891 13.5533 7.97984 15.8742C8.8087 17.3661 9.69283 18.6371 10.5217 19.687C10.9638 20.2395 11.4611 20.7921 12.0689 21.3999L12.2899 21.621C12.8425 22.2288 13.4504 22.7261 14.0029 23.1682C15.0528 23.9971 16.3238 24.8812 17.8157 25.71C20.1918 26.981 21.5732 27.5888 22.4021 27.8098C22.6231 27.8651 22.8994 27.9203 23.1205 27.9203H23.3415C23.8941 27.8098 24.4466 27.5888 24.9992 27.0915C25.7176 26.4837 26.2701 25.8206 26.6569 25.1022C27.0437 24.3286 26.9332 23.6102 26.3254 23.1129C26.3254 23.1129 25.1097 22.1183 24.5019 21.6762C23.9493 21.2342 23.0652 20.6816 22.5679 20.4053C21.6285 19.908 20.7444 20.2395 20.3576 20.7369L19.584 21.7315Z" fill="white"/>
<defs>
<linearGradient id="paint0_linear_183_478" x1="5.2265" y1="31.2259" x2="58.6933" y2="-8.47923" gradientUnits="userSpaceOnUse">
<stop stop-color="#61CE70"/>
<stop offset="1" stop-color="#F2A942"/>
</linearGradient>
</defs>
</svg>
