<svg width="153" height="16" viewBox="0 0 153 16" fill="none" xmlns="http://www.w3.org/2000/svg">
<path d="M152.707 8.70712C153.098 8.3166 153.098 7.68343 152.707 7.29291L146.343 0.928945C145.953 0.538421 145.319 0.538421 144.929 0.928945C144.538 1.31947 144.538 1.95263 144.929 2.34316L150.586 8.00001L144.929 13.6569C144.538 14.0474 144.538 14.6806 144.929 15.0711C145.319 15.4616 145.953 15.4616 146.343 15.0711L152.707 8.70712ZM-8.74228e-08 9L2 9L2 7L8.74228e-08 7L-8.74228e-08 9ZM6 9L10 9L10 7L6 7L6 9ZM14 9L18 9L18 7L14 7L14 9ZM22 9L26 9L26 7L22 7L22 9ZM30 9L34 9L34 7L30 7L30 9ZM38 9L42 9L42 7L38 7L38 9ZM46 9L50 9L50 7L46 7L46 9ZM54 9L58 9.00001L58 7.00001L54 7L54 9ZM62 9.00001L66 9.00001L66 7.00001L62 7.00001L62 9.00001ZM70 9.00001L74 9.00001L74 7.00001L70 7.00001L70 9.00001ZM78 9.00001L82 9.00001L82 7.00001L78 7.00001L78 9.00001ZM86 9.00001L90 9.00001L90 7.00001L86 7.00001L86 9.00001ZM94 9.00001L98 9.00001L98 7.00001L94 7.00001L94 9.00001ZM102 9.00001L106 9.00001L106 7.00001L102 7.00001L102 9.00001ZM110 9.00001L114 9.00001L114 7.00001L110 7.00001L110 9.00001ZM118 9.00001L122 9.00001L122 7.00001L118 7.00001L118 9.00001ZM126 9.00001L130 9.00001L130 7.00001L126 7.00001L126 9.00001ZM134 9.00001L138 9.00001L138 7.00001L134 7.00001L134 9.00001ZM142 9.00001L146 9.00001L146 7.00001L142 7.00001L142 9.00001ZM150 9.00001L152 9.00001L152 7.00001L150 7.00001L150 9.00001Z" fill="#F2A942"/>
</svg>
