<svg width="182" height="44" viewBox="0 0 182 44" fill="none" xmlns="http://www.w3.org/2000/svg">
<path d="M55.067 18.2665H57.6857V14.2019H61.8949V11.8242H57.6857V9.25371H62.7785V6.85994H55.067V18.2665ZM65.5537 18.2665H68.3652L69.0399 16.2101H73.0242L73.6989 18.2665H76.4943L72.3173 6.85994H69.7468L65.5537 18.2665ZM69.7629 13.9609L71.016 10.1052H71.0481L72.3173 13.9609H69.7629ZM80.8535 18.2665H83.4722V14.5875H84.4522L86.7978 18.2665H89.9466L87.2315 14.218C88.6453 13.6396 89.3843 12.4508 89.3843 10.796C89.3843 8.5147 88.1312 6.85994 85.3037 6.85994H80.8535V18.2665ZM83.4722 12.2419V9.22158H84.8699C86.0748 9.22158 86.605 9.8642 86.605 10.7317C86.605 11.6796 85.9784 12.2419 84.8217 12.2419H83.4722ZM94.5159 18.2665H97.1667V11.9688H97.2149L99.5284 16.1619H101.247L103.561 11.9849H103.593V18.2665H106.26V6.85994H103.545L100.412 12.9167H100.38L97.2149 6.85994H94.5159V18.2665ZM57.8624 38.2665H60.3205L62.2965 30.7799H62.3287L64.2244 38.2665H66.6824L70.265 26.8599H67.4054L65.4775 33.8485H65.4293L63.6942 26.8599H60.8667L59.1155 33.8645H59.0673L57.1555 26.8599H54.2798L57.8624 38.2665ZM72.5196 38.2665H75.3311L76.0059 36.2101H79.9901L80.6649 38.2665H83.4603L79.2832 26.8599H76.7127L72.5196 38.2665ZM76.7288 33.9609L77.9819 30.1052H78.0141L79.2832 33.9609H76.7288ZM87.8194 38.2665H90.4381V34.5875H91.4181L93.7637 38.2665H96.9126L94.1975 34.218C95.6112 33.6396 96.3503 32.4508 96.3503 30.796C96.3503 28.5147 95.0971 26.8599 92.2696 26.8599H87.8194V38.2665ZM90.4381 32.2419V29.2216H91.8358C93.0408 29.2216 93.5709 29.8642 93.5709 30.7317C93.5709 31.6796 92.9444 32.2419 91.7876 32.2419H90.4381ZM101.466 38.2665H109.242V35.8727H104.084V33.7521H107.892V31.4386H104.084V29.2537H108.904V26.8599H101.466V38.2665ZM114.077 38.2665H116.792V33.9609H120.808V38.2665H123.507V26.8599H120.808V31.5832H116.792V26.8599H114.077V38.2665ZM134.236 38.4111C137.642 38.4111 140.1 36.0494 140.1 32.5632C140.1 29.0609 137.642 26.6993 134.236 26.6993C130.766 26.6993 128.356 29.1252 128.356 32.5632C128.356 36.0013 130.766 38.4111 134.236 38.4111ZM134.236 35.9209C132.437 35.9209 131.168 34.4268 131.168 32.5632C131.168 30.6996 132.437 29.2055 134.236 29.2055C136.004 29.2055 137.289 30.6675 137.289 32.5632C137.289 34.459 136.004 35.9209 134.236 35.9209ZM149.541 38.4111C152.577 38.4111 154.28 36.4832 154.28 33.5111V26.8599H151.597V33.3504C151.597 34.9731 150.73 35.9049 149.541 35.9049C148.207 35.9049 147.533 34.7481 147.533 33.3504V26.8599H144.834V33.5111C144.834 36.676 146.729 38.4111 149.541 38.4111ZM162.894 38.4111C164.79 38.4111 167.087 37.4472 167.087 34.7642C167.087 32.5632 165.545 32.0491 163.537 31.278C162.3 30.796 161.882 30.5068 161.898 29.9606C161.898 29.4144 162.3 29.077 162.959 29.077C163.601 29.077 164.308 29.3822 165.288 30.1534L166.798 28.1934C165.706 27.2616 164.34 26.6832 162.846 26.7154C160.726 26.7475 159.103 28.1773 159.103 30.0731C159.103 32.3222 160.838 33.1416 162.573 33.736C163.858 34.1698 164.26 34.4429 164.26 35.0694C164.26 35.5835 163.874 36.0334 162.975 36.0334C162.187 36.0334 161.143 35.6317 160.276 34.6839L158.701 36.5957C159.922 37.8488 161.432 38.4111 162.894 38.4111ZM171.8 38.2665H179.575V35.8727H174.418V33.7521H178.226V31.4386H174.418V29.2537H179.238V26.8599H171.8V38.2665Z" fill="#2F2F2F"/>
<path d="M19.916 1.07561C20.9877 0.456885 22.308 0.456885 23.3796 1.07561L38.6636 9.89978C39.7352 10.5185 40.3954 11.6619 40.3954 12.8994V30.5477C40.3954 31.7852 39.7352 32.9286 38.6636 33.5473L23.3796 42.3715C22.308 42.9902 20.9877 42.9902 19.916 42.3715L4.63209 33.5473C3.56043 32.9286 2.90026 31.7852 2.90026 30.5477V12.8994C2.90026 11.6619 3.56043 10.5185 4.63208 9.89978L19.916 1.07561Z" fill="url(#paint0_linear_535_18)"/>
<path d="M15.4175 42.3062C15.4175 42.3062 19.3949 43.8037 23.7783 43.0093C28.2507 42.3803 32.3559 40.1878 35.366 36.8207C38.3761 33.4536 40.0966 29.1293 40.2225 24.6146C40.2323 24.2507 40.2311 23.8911 40.2205 23.5311C40.2969 23.4535 40.3743 23.3725 40.4494 23.2909C40.3763 23.3524 40.301 23.4134 40.2181 23.4796C40.0223 23.6371 39.8009 23.7996 39.55 23.972C39.4698 24.0291 39.3843 24.0872 39.2961 24.147C38.5282 24.6496 37.7274 25.0998 36.8991 25.4947C36.7537 25.5637 36.6033 25.6337 36.4462 25.7055C36.1776 25.8291 35.8996 25.9525 35.6083 26.0758C35.4755 26.1302 35.3394 26.1873 35.1998 26.2448C35.1876 26.2497 35.1751 26.2538 35.1625 26.2572C34.9949 26.3271 34.8266 26.3921 34.6527 26.4591C34.1342 26.6585 33.5806 26.8561 32.992 27.0518L32.9834 27.0567C31.5623 27.5248 29.9205 27.9861 28.0224 28.4125C27.2676 28.5827 26.4782 28.7466 25.6459 28.9046C25.3817 28.9533 25.1098 29.0034 24.8356 29.053C23.7947 29.2078 22.7992 29.5839 21.916 30.1561C21.6527 30.3303 21.4 30.5198 21.159 30.7237C20.9677 30.8862 20.786 31.0586 20.6131 31.2373C20.5368 31.3149 20.4623 31.3943 20.389 31.474L20.3887 31.475C20.334 31.5358 20.2838 31.5978 20.231 31.6603C20.0798 31.8355 19.9344 32.0158 19.7993 32.2027C18.9219 33.4452 18.2806 34.8384 17.9073 36.3129C17.4928 37.8728 17.399 39.2438 17.4734 39.8928L17.4879 39.8885C17.5447 39.8755 17.787 39.8146 18.1801 39.6995C18.2264 39.6858 18.2755 39.6707 18.3267 39.6562C18.4482 39.6204 18.5805 39.5804 18.7259 39.5368C18.9393 39.4713 19.1732 39.397 19.4299 39.3111C19.5072 39.2857 19.5859 39.2596 19.6662 39.2328L19.6684 39.2334L19.669 39.2312C19.9557 39.138 20.2675 39.0278 20.5989 38.9085C23.7572 37.7736 28.7446 35.5757 32.8128 31.9598C32.5547 32.291 28.6985 37.1211 19.8882 40.7329C19.5539 40.8707 19.2081 41.0067 18.8583 41.14C18.5157 41.273 18.1674 41.4008 17.8101 41.526C17.6412 41.5884 17.4747 41.6465 17.3 41.7036C16.6927 41.913 16.0641 42.1116 15.4175 42.3062Z" fill="white"/>
<path d="M16.0981 33.2251C16.0981 33.2251 13.6337 32.7686 11.6629 31.0312C9.59686 29.3502 8.19275 26.9919 7.69958 24.3745C7.2064 21.757 7.65602 19.0495 8.96867 16.7318C9.07459 16.5451 9.1848 16.364 9.30006 16.1855C9.2851 16.1229 9.2707 16.0585 9.25764 15.9944C9.27574 16.0478 9.2952 16.1015 9.31685 16.1601C9.36774 16.2994 9.43003 16.4489 9.50407 16.6123C9.5272 16.6657 9.55257 16.721 9.57896 16.7781C9.81341 17.2659 10.0804 17.7374 10.3782 18.1893C10.4305 18.2684 10.4853 18.3498 10.5425 18.4336C10.6404 18.578 10.7433 18.7251 10.8528 18.8762C10.9032 18.9441 10.9544 19.0144 11.0073 19.086L11.0225 19.1036C11.0857 19.19 11.151 19.2741 11.2183 19.3609C11.4193 19.6196 11.6385 19.8881 11.876 20.1664L11.8789 20.1715C12.4535 20.841 13.1417 21.5745 13.97 22.3683C14.2992 22.6843 14.6477 23.0077 15.0199 23.3412C15.1384 23.4463 15.2604 23.5545 15.3837 23.6631C15.8619 24.0586 16.2499 24.552 16.5212 25.11C16.6011 25.2782 16.6709 25.451 16.7304 25.6274C16.7775 25.7677 16.8168 25.9101 16.8494 26.053C16.8644 26.1155 16.8778 26.1782 16.8905 26.2408L16.8903 26.2415C16.8994 26.2889 16.9058 26.3355 16.9133 26.3831C16.9363 26.5176 16.9547 26.6529 16.966 26.7884C17.0301 27.6831 16.9292 28.582 16.6683 29.4402C16.4846 30.1298 16.19 30.7849 15.7959 31.3798L15.79 31.3733C15.7652 31.3494 15.6614 31.2447 15.498 31.0668C15.4789 31.0459 15.4587 31.0232 15.4372 31.0003C15.3869 30.9451 15.3323 30.8846 15.2721 30.8183C15.1844 30.7201 15.0889 30.6113 14.9856 30.4897C14.9542 30.4533 14.9223 30.4162 14.8901 30.3781L14.8888 30.3778L14.8892 30.3765C14.7729 30.2421 14.6492 30.0914 14.5182 29.9301C13.2696 28.3943 11.4217 25.7645 10.4703 22.6988C10.4997 22.9447 10.974 26.5587 14.3207 31.0678C14.4475 31.2393 14.5806 31.4133 14.7167 31.5872C14.849 31.7589 14.9859 31.9296 15.128 32.1017C15.1943 32.1846 15.2607 32.2647 15.3314 32.3468C15.5743 32.6377 15.8309 32.9295 16.0981 33.2251Z" fill="white"/>
<path d="M17.3764 22.2941C16.3697 21.8754 15.4795 21.2188 14.7824 20.3806C13.6491 19.0666 13.0178 17.3937 13.0004 15.6586C12.9829 13.9235 13.5805 12.2383 14.6871 10.9017C14.7764 10.7942 14.8678 10.6905 14.962 10.5892C14.9597 10.5473 14.9579 10.5044 14.9569 10.4619C14.9623 10.4981 14.9686 10.5349 14.9758 10.5749C14.9926 10.67 15.0154 10.773 15.0442 10.8863C15.053 10.9231 15.0629 10.9615 15.0733 11.0011C15.1679 11.3408 15.2853 11.6737 15.4248 11.9975C15.4494 12.0542 15.475 12.1125 15.5024 12.173C15.5486 12.2767 15.5977 12.3828 15.6507 12.4923C15.6753 12.5415 15.7001 12.5925 15.7259 12.6445L15.7336 12.6575C15.7643 12.7201 15.7965 12.7816 15.8298 12.8449C15.9292 13.0337 16.0392 13.231 16.1597 13.4365L16.1609 13.4401C16.453 13.9352 16.8107 14.4842 17.2513 15.088C17.4263 15.3282 17.6128 15.5754 17.8134 15.8317C17.8775 15.9127 17.9434 15.9961 18.0101 16.0798C18.2717 16.3881 18.4641 16.7488 18.5745 17.1377C18.6065 17.2547 18.6315 17.3735 18.6495 17.4934C18.6636 17.5888 18.6726 17.6847 18.6773 17.7801C18.6797 17.8218 18.6811 17.8636 18.6822 17.9051L18.6819 17.9056C18.6823 17.9369 18.6812 17.9676 18.6806 17.999C18.68 18.0879 18.6762 18.1768 18.6681 18.2651C18.607 18.8462 18.4396 19.4112 18.1742 19.9318C17.9777 20.3531 17.714 20.7396 17.3933 21.0762L17.3902 21.0712C17.3771 21.0531 17.3225 20.9742 17.238 20.8414C17.228 20.8258 17.2178 20.8089 17.2067 20.7917C17.1805 20.7506 17.1525 20.7056 17.1215 20.6562C17.0764 20.5832 17.0276 20.5025 16.9752 20.4128C16.9592 20.3859 16.943 20.3583 16.9267 20.3303L16.926 20.3299L16.9262 20.3291C16.8671 20.2295 16.8049 20.1187 16.7393 20.0003C16.1139 18.8728 15.2291 16.9751 14.9689 14.9002C14.9597 15.0613 14.8512 17.4334 16.4828 20.7077C16.5445 20.832 16.61 20.9589 16.6773 21.086C16.7427 21.211 16.811 21.3361 16.8825 21.4628C16.9156 21.5237 16.9489 21.5826 16.985 21.6434C17.1074 21.8576 17.2388 22.074 17.3764 22.2941Z" fill="white"/>
<path d="M17.8677 27.3073C17.8677 27.3073 20.5618 28.5041 23.6292 28.1301C26.7515 27.8741 29.6824 26.5208 31.9021 24.31C34.1217 22.0992 35.4868 19.1738 35.7553 16.0525C35.7766 15.8009 35.7903 15.5518 35.7974 15.3022C35.8533 15.2514 35.9101 15.1984 35.9655 15.1451C35.9124 15.1847 35.8578 15.2238 35.7979 15.2664C35.6559 15.3676 35.4961 15.4713 35.3154 15.5805C35.2575 15.6168 35.196 15.6536 35.1325 15.6914C34.5806 16.0086 34.008 16.2883 33.4185 16.5285C33.315 16.5704 33.208 16.6129 33.0965 16.6562C32.9055 16.7311 32.7079 16.8054 32.5012 16.879C32.4071 16.9114 32.3106 16.9455 32.2117 16.9796L32.1853 16.9867C32.0666 17.0284 31.9473 17.0667 31.8242 17.1061C31.4571 17.2233 31.0659 17.3379 30.6504 17.4499L30.6441 17.4529C29.6413 17.7199 28.4859 17.9734 27.1544 18.1925C26.6248 18.2801 26.0717 18.362 25.489 18.4378C25.304 18.4609 25.1136 18.4847 24.9218 18.508C24.1948 18.5733 23.4903 18.7938 22.8558 19.1546C22.6665 19.2647 22.4838 19.3858 22.3087 19.5172C22.1698 19.6221 22.0369 19.7343 21.9102 19.851C21.8541 19.9017 21.7994 19.9537 21.7454 20.0059L21.7451 20.0066C21.7047 20.0465 21.6675 20.0875 21.6285 20.1287C21.5168 20.2438 21.4089 20.3628 21.3077 20.4869C20.6503 21.312 20.1502 22.251 19.8325 23.2571C19.5519 24.0481 19.4019 24.8795 19.3882 25.7187L19.3984 25.7162C19.4385 25.7095 19.6086 25.677 19.8855 25.6133C19.9179 25.6057 19.9525 25.5971 19.9887 25.5891C20.0743 25.5692 20.1675 25.5468 20.27 25.5225C20.4203 25.4857 20.5852 25.4437 20.7664 25.3944C20.821 25.38 20.8766 25.3652 20.9333 25.3498L20.9348 25.3502L20.9354 25.3488C21.1374 25.2956 21.3579 25.2318 21.5921 25.1626C23.8249 24.5036 27.3668 23.1819 30.3292 20.8414C30.1371 21.0602 27.2728 24.2502 21.0266 26.3975C20.7897 26.4795 20.5447 26.5596 20.2971 26.6379C20.0546 26.7163 19.8083 26.7907 19.5558 26.8631C19.4364 26.8996 19.3187 26.9332 19.1955 26.9657C18.7664 27.0863 18.3233 27.1986 17.8677 27.3073Z" fill="white"/>
<path d="M21.3582 16.3634C22.2488 16.6354 23.1921 16.6873 24.1072 16.5147C25.5681 16.266 26.8937 15.508 27.849 14.375C28.8044 13.2421 29.3277 11.8075 29.3261 10.3255C29.3258 10.2061 29.3221 10.0882 29.3151 9.97024C29.3395 9.94412 29.3641 9.91683 29.3878 9.88923C29.3646 9.91015 29.3403 9.93091 29.3138 9.95331C29.251 10.0069 29.1802 10.0622 29.0994 10.1211C29.0736 10.1407 29.0462 10.1606 29.0179 10.181C28.7707 10.3531 28.5123 10.5083 28.2443 10.6457C28.1975 10.6697 28.1486 10.6942 28.0979 10.7191C28.011 10.7623 27.9209 10.8055 27.8266 10.8486C27.7835 10.8678 27.7395 10.8878 27.6942 10.9078L27.6821 10.9123C27.6278 10.9369 27.5732 10.9597 27.5168 10.9833C27.3485 11.0537 27.1688 11.1237 26.9777 11.1936L26.9749 11.1952C26.5133 11.3622 25.9791 11.5291 25.3606 11.687C25.1146 11.7499 24.8574 11.8112 24.5859 11.8708C24.4997 11.8893 24.411 11.9083 24.3215 11.9272C23.9816 11.9878 23.6587 12.1207 23.3744 12.3167C23.2897 12.3763 23.2086 12.4409 23.1314 12.5101C23.0703 12.5652 23.0123 12.6234 22.9574 12.6836C22.9331 12.7099 22.9093 12.7366 22.886 12.7634L22.8859 12.7637C22.8686 12.7842 22.8527 12.8051 22.8361 12.8261C22.7881 12.885 22.7421 12.9455 22.6996 13.0081C22.4236 13.4239 22.2265 13.8869 22.118 14.374C22.0182 14.7583 21.9816 15.1563 22.0096 15.5524L22.0143 15.5507C22.0329 15.546 22.1118 15.5237 22.2397 15.4822C22.2547 15.4773 22.2705 15.472 22.2873 15.4666C22.3268 15.4537 22.3698 15.4393 22.4171 15.4236C22.4864 15.4002 22.5625 15.3736 22.6459 15.343C22.6709 15.334 22.6965 15.3246 22.7225 15.315L22.7233 15.3153L22.7235 15.3145C22.8166 15.2812 22.9178 15.2422 23.0253 15.1999C24.0506 14.7977 25.6655 14.0295 26.9655 12.805C26.8839 12.9159 25.665 14.5367 22.8096 15.805C22.7012 15.8534 22.5892 15.9012 22.4757 15.9482C22.3646 15.9951 22.2515 16.0403 22.1355 16.0848C22.0808 16.1068 22.0266 16.1275 21.97 16.1479C21.7728 16.2223 21.5685 16.2934 21.3582 16.3634Z" fill="white"/>
<defs>
<linearGradient id="paint0_linear_535_18" x1="0.856392" y1="40.8443" x2="41.6389" y2="3.65053" gradientUnits="userSpaceOnUse">
<stop stop-color="#00A179"/>
<stop offset="1" stop-color="#72FF7C"/>
</linearGradient>
</defs>
</svg>
