<svg width="20" height="20" viewBox="0 0 20 20" fill="none" xmlns="http://www.w3.org/2000/svg">
<path d="M14.7019 12.7934C14.0702 12.1697 13.2814 12.1697 12.6537 12.7934C12.1748 13.2682 11.6959 13.7431 11.2251 14.226C11.0964 14.3588 10.9877 14.3869 10.8308 14.2984C10.5209 14.1294 10.1909 13.9926 9.89315 13.8075C8.50484 12.9342 7.34188 11.8115 6.31171 10.5479C5.80065 9.92019 5.34593 9.24817 5.02803 8.49164C4.96364 8.33872 4.97571 8.23812 5.10046 8.11337C5.57933 7.6506 6.04612 7.17576 6.51694 6.70092C7.17287 6.04097 7.17287 5.26834 6.51292 4.60437C6.13868 4.2261 5.76444 3.85589 5.3902 3.47762C5.00388 3.09131 4.62159 2.70097 4.23126 2.31868C3.59948 1.703 2.81076 1.703 2.183 2.32271C1.70011 2.79755 1.23734 3.28447 0.746398 3.75126C0.291676 4.18184 0.0623034 4.70899 0.0140144 5.32468C-0.0624433 6.32668 0.183026 7.27234 0.529098 8.19386C1.23734 10.1013 2.31579 11.7954 3.62362 13.3487C5.3902 15.4493 7.49882 17.1112 9.96558 18.3104C11.0762 18.8496 12.2271 19.2641 13.4786 19.3325C14.3398 19.3808 15.0882 19.1635 15.6878 18.4915C16.0983 18.0328 16.5611 17.6142 16.9957 17.1756C17.6395 16.5237 17.6435 15.735 17.0037 15.0911C16.2391 14.3225 15.4705 13.558 14.7019 12.7934Z" fill="#F2A942"/>
<path d="M13.9333 9.58553L15.4182 9.33202C15.1848 7.96785 14.541 6.73246 13.5631 5.75058C12.5289 4.71639 11.2211 4.06449 9.78048 3.86328L9.57123 5.35622C10.6859 5.51316 11.7 6.01617 12.5008 6.81696C13.2573 7.57349 13.7523 8.53122 13.9333 9.58553Z" fill="#F2A942"/>
<path d="M16.2551 3.13074C14.5408 1.41648 12.3718 0.333999 9.9775 0L9.76825 1.49294C11.8366 1.78267 13.7119 2.72028 15.1927 4.19712C16.5971 5.60153 17.5186 7.37615 17.8526 9.32784L19.3375 9.07432C18.9472 6.81278 17.8808 4.7605 16.2551 3.13074Z" fill="#F2A942"/>
</svg>
